<svg xmlns="http://www.w3.org/2000/svg" viewBox="0 0 800 500" role="img" aria-labelledby="ecommerceTitle ecommerceDesc">
  <title id="ecommerceTitle">E-commerce illustration</title>
  <desc id="ecommerceDesc">Shopping cart and product layout illustration for an e-commerce platform.</desc>
  <defs>
    <linearGradient id="ebg" x1="0" x2="1" y1="0" y2="1">
      <stop offset="0%" stop-color="#111827"/>
      <stop offset="100%" stop-color="#7c2d12"/>
    </linearGradient>
  </defs>
  <rect width="800" height="500" rx="40" fill="url(#ebg)"/>
  <rect x="82" y="84" width="636" height="332" rx="30" fill="#0f172a" stroke="#4b5563" stroke-width="2"/>
  <rect x="118" y="124" width="174" height="222" rx="22" fill="#1f2937"/>
  <rect x="146" y="154" width="118" height="92" rx="18" fill="#fb923c"/>
  <rect x="146" y="270" width="94" height="14" rx="7" fill="#cbd5e1"/>
  <rect x="146" y="298" width="68" height="14" rx="7" fill="#94a3b8"/>
  <rect x="328" y="124" width="174" height="222" rx="22" fill="#1f2937"/>
  <rect x="356" y="154" width="118" height="92" rx="18" fill="#38bdf8"/>
  <rect x="356" y="270" width="94" height="14" rx="7" fill="#cbd5e1"/>
  <rect x="356" y="298" width="68" height="14" rx="7" fill="#94a3b8"/>
  <path d="M572 177h92l-12 68h-60l-20-94h-30" fill="none" stroke="#f8fafc" stroke-width="12" stroke-linecap="round" stroke-linejoin="round"/>
  <circle cx="602" cy="304" r="18" fill="#f8fafc"/>
  <circle cx="650" cy="304" r="18" fill="#f8fafc"/>
  <rect x="542" y="338" width="130" height="24" rx="12" fill="#22c55e"/>
</svg>
