<svg xmlns="http://www.w3.org/2000/svg" viewBox="0 0 800 500" role="img" aria-labelledby="plantTitle plantDesc">
  <title id="plantTitle">Plant disease detection illustration</title>
  <desc id="plantDesc">Leaf scan and analytics illustration for a plant disease detection project.</desc>
  <defs>
    <linearGradient id="pbg" x1="0" x2="1" y1="0" y2="1">
      <stop offset="0%" stop-color="#052e16"/>
      <stop offset="100%" stop-color="#1f2937"/>
    </linearGradient>
  </defs>
  <rect width="800" height="500" rx="40" fill="url(#pbg)"/>
  <rect x="88" y="76" width="624" height="348" rx="30" fill="#071723" stroke="#36516a" stroke-width="2"/>
  <rect x="118" y="110" width="300" height="280" rx="26" fill="#0f172a"/>
  <path d="M269 343c8-52-6-120 17-183" stroke="#4ade80" stroke-width="12" stroke-linecap="round"/>
  <path d="M286 177c-63-26-106 31-104 93 66 6 111-28 104-93Z" fill="#22c55e"/>
  <path d="M295 233c69-23 94 31 85 82-57 11-96-22-85-82Z" fill="#16a34a"/>
  <circle cx="253" cy="211" r="16" fill="#dc2626" opacity=".78"/>
  <circle cx="325" cy="264" r="14" fill="#f59e0b" opacity=".74"/>
  <rect x="460" y="120" width="200" height="24" rx="12" fill="#1e293b"/>
  <rect x="460" y="172" width="172" height="18" rx="9" fill="#14532d"/>
  <rect x="460" y="208" width="142" height="18" rx="9" fill="#14532d"/>
  <rect x="460" y="260" width="210" height="70" rx="22" fill="#0f5132"/>
  <circle cx="512" cy="295" r="26" fill="#bbf7d0"/>
  <path d="M500 295l10 10 18-22" fill="none" stroke="#166534" stroke-width="8" stroke-linecap="round" stroke-linejoin="round"/>
</svg>
