<svg xmlns="http://www.w3.org/2000/svg" viewBox="0 0 800 500" role="img" aria-labelledby="walletTitle walletDesc">
  <title id="walletTitle">Wallet service illustration</title>
  <desc id="walletDesc">Backend wallet service with balance and transaction flow illustration.</desc>
  <defs>
    <linearGradient id="wbg" x1="0" x2="1" y1="0" y2="1">
      <stop offset="0%" stop-color="#07111f"/>
      <stop offset="100%" stop-color="#164e63"/>
    </linearGradient>
  </defs>
  <rect width="800" height="500" rx="40" fill="url(#wbg)"/>
  <rect x="82" y="86" width="636" height="328" rx="30" fill="#0b1728" stroke="#36506a" stroke-width="2"/>
  <rect x="122" y="128" width="250" height="160" rx="24" fill="#0f766e"/>
  <rect x="144" y="154" width="110" height="18" rx="9" fill="#ccfbf1"/>
  <rect x="144" y="192" width="152" height="46" rx="18" fill="#ecfeff"/>
  <rect x="144" y="252" width="86" height="14" rx="7" fill="#a7f3d0"/>
  <rect x="418" y="126" width="248" height="34" rx="17" fill="#1e293b"/>
  <rect x="418" y="190" width="248" height="88" rx="24" fill="#111827"/>
  <path d="M450 222h58M450 246h110M596 222h34" stroke="#38bdf8" stroke-width="12" stroke-linecap="round"/>
  <rect x="418" y="308" width="112" height="46" rx="18" fill="#22c55e"/>
  <rect x="554" y="308" width="112" height="46" rx="18" fill="#ef4444"/>
  <path d="M469 331h10l10-14 10 28 10-14h10" fill="none" stroke="#052e16" stroke-width="8" stroke-linecap="round" stroke-linejoin="round"/>
  <path d="M604 322v18M595 331h18" stroke="#fff1f2" stroke-width="8" stroke-linecap="round"/>
</svg>
