<svg xmlns="http://www.w3.org/2000/svg" viewBox="0 0 800 500" role="img" aria-labelledby="portfolioTitle portfolioDesc">
  <title id="portfolioTitle">Portfolio design illustration</title>
  <desc id="portfolioDesc">Creative multi-window interface illustration for a portfolio project.</desc>
  <defs>
    <linearGradient id="fbg" x1="0" x2="1" y1="0" y2="1">
      <stop offset="0%" stop-color="#0f172a"/>
      <stop offset="100%" stop-color="#312e81"/>
    </linearGradient>
  </defs>
  <rect width="800" height="500" rx="40" fill="url(#fbg)"/>
  <rect x="86" y="88" width="628" height="324" rx="28" fill="#0b1326" stroke="#475569" stroke-width="2"/>
  <rect x="120" y="124" width="242" height="252" rx="24" fill="#111827"/>
  <circle cx="241" cy="200" r="64" fill="#22c55e"/>
  <circle cx="241" cy="178" r="26" fill="#dcfce7"/>
  <path d="M188 264c21-31 87-31 108 0v28H188z" fill="#dcfce7"/>
  <rect x="400" y="130" width="270" height="34" rx="17" fill="#334155"/>
  <rect x="400" y="188" width="212" height="16" rx="8" fill="#22c55e"/>
  <rect x="400" y="220" width="186" height="16" rx="8" fill="#38bdf8"/>
  <rect x="400" y="268" width="270" height="86" rx="24" fill="#1e293b"/>
  <rect x="424" y="292" width="92" height="38" rx="14" fill="#22c55e"/>
  <rect x="530" y="292" width="116" height="14" rx="7" fill="#94a3b8"/>
  <rect x="530" y="316" width="92" height="14" rx="7" fill="#64748b"/>
</svg>
