<svg xmlns="http://www.w3.org/2000/svg" viewBox="0 0 800 500" role="img" aria-labelledby="freelancerTitle freelancerDesc">
  <title id="freelancerTitle">Freelancer marketplace illustration</title>
  <desc id="freelancerDesc">Marketplace dashboard illustration for a freelancer platform project.</desc>
  <defs>
    <linearGradient id="fmbg" x1="0" x2="1" y1="0" y2="1">
      <stop offset="0%" stop-color="#0b1324"/>
      <stop offset="100%" stop-color="#1d4ed8"/>
    </linearGradient>
  </defs>
  <rect width="800" height="500" rx="40" fill="url(#fmbg)"/>
  <rect x="78" y="84" width="644" height="332" rx="30" fill="#0f172a" stroke="#3b82f6" stroke-width="2"/>
  <rect x="116" y="124" width="220" height="252" rx="24" fill="#111827"/>
  <circle cx="226" cy="188" r="46" fill="#60a5fa"/>
  <rect x="168" y="258" width="116" height="18" rx="9" fill="#cbd5e1"/>
  <rect x="152" y="292" width="148" height="14" rx="7" fill="#64748b"/>
  <rect x="152" y="320" width="126" height="14" rx="7" fill="#64748b"/>
  <rect x="382" y="126" width="298" height="36" rx="18" fill="#1e293b"/>
  <rect x="382" y="186" width="298" height="78" rx="22" fill="#111827"/>
  <rect x="410" y="212" width="110" height="16" rx="8" fill="#60a5fa"/>
  <rect x="410" y="238" width="164" height="14" rx="7" fill="#94a3b8"/>
  <rect x="382" y="292" width="138" height="54" rx="18" fill="#22c55e"/>
  <rect x="542" y="292" width="138" height="54" rx="18" fill="#f59e0b"/>
  <path d="M433 319h36M593 319h36" stroke="#052e16" stroke-width="10" stroke-linecap="round"/>
</svg>
